# Exported from Wings 3D 1.5.2
mtllib cbox.mtl
o Cube1
#92 vertices, 89 faces
v 1.00000000 -1.00000000 1.00000000
v 1.00000000 -1.00000000 -1.00000000
v 1.00000000 1.00000000 1.00000000
v 1.00000000 1.00000000 -1.00000000
v -1.00000000 -1.00000000 1.00000000
v -1.00000000 -1.00000000 -1.00000000
v -1.00000000 1.00000000 1.00000000
v -1.00000000 1.00000000 -1.00000000
v 0.30000000 1.00000000 -0.30000000
v 0.30000000 1.00000000 0.30000000
v -0.30000000 1.00000000 0.30000000
v -0.30000000 1.00000000 -0.30000000
v 1.00000000 -1.00000000 -0.50000000
v 1.00000000 -1.00000000 1.5265567e-16
v 1.00000000 -1.00000000 0.50000000
v 1.00000000 0.50000000 1.00000000
v 1.00000000 0.0000000e+0 1.00000000
v 1.00000000 -0.50000000 1.00000000
v 1.00000000 0.50000000 -1.00000000
v 1.00000000 0.0000000e+0 -1.00000000
v 1.00000000 -0.50000000 -1.00000000
v 1.00000000 1.00000000 -0.50000000
v 1.00000000 1.00000000 1.5265567e-16
v 1.00000000 1.00000000 0.50000000
v -1.00000000 -1.00000000 -0.50000000
v -1.00000000 -1.00000000 -9.7144515e-17
v -1.00000000 -1.00000000 0.50000000
v -1.00000000 0.50000000 1.00000000
v -1.00000000 0.0000000e+0 1.00000000
v -1.00000000 -0.50000000 1.00000000
v -1.00000000 0.50000000 -1.00000000
v -1.00000000 0.0000000e+0 -1.00000000
v -1.00000000 -0.50000000 -1.00000000
v -1.00000000 1.00000000 -0.50000000
v -1.00000000 1.00000000 -9.7144515e-17
v -1.00000000 1.00000000 0.50000000
v -0.50000000 -1.00000000 1.00000000
v -1.1102230e-16 -1.00000000 1.00000000
v 0.50000000 -1.00000000 1.00000000
v -0.50000000 -1.00000000 -1.00000000
v 1.1102230e-16 -1.00000000 -1.00000000
v 0.50000000 -1.00000000 -1.00000000
v -0.50000000 1.00000000 1.00000000
v -1.1102230e-16 1.00000000 1.00000000
v 0.50000000 1.00000000 1.00000000
v -0.50000000 1.00000000 -1.00000000
v 1.1102230e-16 1.00000000 -1.00000000
v 0.50000000 1.00000000 -1.00000000
v 0.50000000 -1.00000000 -0.50000000
v 5.5511151e-17 -1.00000000 -0.50000000
v -0.50000000 -1.00000000 -0.50000000
v 0.50000000 -1.00000000 9.0205621e-17
v 7.2987094e-2 -1.00000000 0.10619688
v -0.39380312 -1.00000000 -7.2987094e-2
v 0.50000000 -1.00000000 0.50000000
v -0.10619688 -1.00000000 0.57298709
v -0.57298709 -1.00000000 0.39380312
v 0.50000000 0.50000000 -1.00000000
v 1.1102230e-16 0.50000000 -1.00000000
v -0.50000000 0.50000000 -1.00000000
v 0.50000000 0.0000000e+0 -1.00000000
v 1.1102230e-16 0.0000000e+0 -1.00000000
v -0.50000000 0.0000000e+0 -1.00000000
v 0.50000000 -0.50000000 -1.00000000
v 1.1102230e-16 -0.50000000 -1.00000000
v -0.50000000 -0.50000000 -1.00000000
v -0.50000000 0.50000000 1.00000000
v -1.1102230e-16 0.50000000 1.00000000
v 0.50000000 0.50000000 1.00000000
v -0.50000000 0.0000000e+0 1.00000000
v -1.1102230e-16 0.0000000e+0 1.00000000
v 0.50000000 0.0000000e+0 1.00000000
v -0.50000000 -0.50000000 1.00000000
v -1.1102230e-16 -0.50000000 1.00000000
v 0.50000000 -0.50000000 1.00000000
v 1.00000000 -0.50000000 -0.50000000
v 1.00000000 0.0000000e+0 -0.50000000
v 1.00000000 0.50000000 -0.50000000
v 1.00000000 0.50000000 1.5265567e-16
v 1.00000000 0.0000000e+0 1.5265567e-16
v 1.00000000 -0.50000000 1.5265567e-16
v 1.00000000 0.50000000 0.50000000
v 1.00000000 0.0000000e+0 0.50000000
v 1.00000000 -0.50000000 0.50000000
v -0.39380312 -0.70000000 -7.2987094e-2
v -0.57298709 -0.70000000 0.39380312
v -0.10619688 -0.70000000 0.57298709
v 7.2987094e-2 -0.70000000 0.10619688
v -0.39380312 -0.40000000 -7.2987094e-2
v -0.57298709 -0.40000000 0.39380312
v -0.10619688 -0.40000000 0.57298709
v 7.2987094e-2 -0.40000000 0.10619688
vn 0.0000000e+0 -1.00000000 8.8112938e-17
vn 0.0000000e+0 -1.00000000 8.8112938e-17
vn 0.0000000e+0 -1.00000000 -8.8112938e-17
vn 0.0000000e+0 -1.00000000 -8.8112938e-17
vn 0.0000000e+0 1.00000000 0.0000000e+0
vn 0.0000000e+0 1.00000000 0.0000000e+0
vn 0.0000000e+0 1.00000000 0.0000000e+0
vn 0.0000000e+0 1.00000000 0.0000000e+0
vn 0.0000000e+0 1.00000000 0.0000000e+0
vn 0.0000000e+0 0.0000000e+0 1.00000000
vn 0.0000000e+0 0.0000000e+0 1.00000000
vn -2.2204460e-16 0.0000000e+0 1.00000000
vn 0.0000000e+0 0.0000000e+0 1.00000000
vn 0.0000000e+0 0.0000000e+0 1.00000000
vn -2.2204460e-16 0.0000000e+0 1.00000000
vn 0.0000000e+0 0.0000000e+0 1.00000000
vn 0.0000000e+0 0.0000000e+0 1.00000000
vn -2.2204460e-16 0.0000000e+0 1.00000000
vn 0.0000000e+0 0.0000000e+0 -1.00000000
vn 0.0000000e+0 0.0000000e+0 -1.00000000
vn 2.2204460e-16 0.0000000e+0 -1.00000000
vn 0.0000000e+0 0.0000000e+0 -1.00000000
vn 0.0000000e+0 0.0000000e+0 -1.00000000
vn 2.2204460e-16 0.0000000e+0 -1.00000000
vn 0.0000000e+0 0.0000000e+0 -1.00000000
vn 0.0000000e+0 0.0000000e+0 -1.00000000
vn 2.2204460e-16 0.0000000e+0 -1.00000000
vn -1.00000000 0.0000000e+0 -2.2204460e-16
vn -1.00000000 0.0000000e+0 -2.2204460e-16
vn -1.00000000 0.0000000e+0 -2.2204460e-16
vn -1.00000000 0.0000000e+0 0.0000000e+0
vn -1.00000000 0.0000000e+0 0.0000000e+0
vn -1.00000000 0.0000000e+0 0.0000000e+0
vn -1.00000000 0.0000000e+0 0.0000000e+0
vn -1.00000000 0.0000000e+0 0.0000000e+0
vn -1.00000000 0.0000000e+0 0.0000000e+0
vn 0.0000000e+0 1.00000000 0.0000000e+0
vn 4.4408921e-16 0.0000000e+0 -1.00000000
vn -1.00000000 0.0000000e+0 0.0000000e+0
vn 0.0000000e+0 1.00000000 0.0000000e+0
vn 0.0000000e+0 0.0000000e+0 1.00000000
vn -1.00000000 0.0000000e+0 -4.4408921e-16
vn 0.0000000e+0 -1.00000000 0.0000000e+0
vn 4.4408921e-16 0.0000000e+0 -1.00000000
vn -1.00000000 0.0000000e+0 0.0000000e+0
vn 0.0000000e+0 -1.00000000 0.0000000e+0
vn 0.0000000e+0 0.0000000e+0 1.00000000
vn 0.0000000e+0 -1.00000000 0.0000000e+0
vn -1.00000000 0.0000000e+0 -4.4408921e-16
vn 0.0000000e+0 -1.00000000 0.0000000e+0
vn 0.0000000e+0 0.0000000e+0 -1.00000000
vn 0.0000000e+0 1.00000000 0.0000000e+0
vn 0.0000000e+0 1.00000000 0.0000000e+0
vn -4.4408921e-16 0.0000000e+0 1.00000000
vn 0.0000000e+0 0.0000000e+0 -1.00000000
vn 0.0000000e+0 -1.00000000 0.0000000e+0
vn 0.0000000e+0 -1.00000000 0.0000000e+0
vn 0.0000000e+0 -1.00000000 0.0000000e+0
vn 0.0000000e+0 -1.00000000 0.0000000e+0
vn -4.4408921e-16 0.0000000e+0 1.00000000
vn 0.0000000e+0 1.00000000 0.0000000e+0
vn 0.0000000e+0 1.00000000 0.0000000e+0
vn -1.00000000 0.0000000e+0 -2.2204460e-16
vn -1.00000000 0.0000000e+0 -2.2204460e-16
vn 0.0000000e+0 1.00000000 0.0000000e+0
vn 0.0000000e+0 1.00000000 0.0000000e+0
vn -1.00000000 0.0000000e+0 0.0000000e+0
vn -1.00000000 0.0000000e+0 0.0000000e+0
vn 0.0000000e+0 1.00000000 0.0000000e+0
vn 0.0000000e+0 1.00000000 0.0000000e+0
vn -1.00000000 0.0000000e+0 0.0000000e+0
vn -1.00000000 0.0000000e+0 0.0000000e+0
vn 4.4408921e-16 0.0000000e+0 -1.00000000
vn 4.4408921e-16 0.0000000e+0 -1.00000000
vn -1.00000000 0.0000000e+0 0.0000000e+0
vn -1.00000000 0.0000000e+0 0.0000000e+0
vn 4.4408921e-16 0.0000000e+0 -1.00000000
vn 4.4408921e-16 0.0000000e+0 -1.00000000
vn -1.00000000 0.0000000e+0 0.0000000e+0
vn -1.00000000 0.0000000e+0 0.0000000e+0
vn 4.4408921e-16 0.0000000e+0 -1.00000000
vn 4.4408921e-16 0.0000000e+0 -1.00000000
vn -1.00000000 0.0000000e+0 0.0000000e+0
vn -1.00000000 0.0000000e+0 0.0000000e+0
vn 0.0000000e+0 0.0000000e+0 1.00000000
vn 0.0000000e+0 0.0000000e+0 1.00000000
vn -1.00000000 0.0000000e+0 -4.4408921e-16
vn -1.00000000 0.0000000e+0 -4.4408921e-16
vn 0.0000000e+0 0.0000000e+0 1.00000000
vn 0.0000000e+0 0.0000000e+0 1.00000000
vn -1.00000000 0.0000000e+0 -4.4408921e-16
vn -1.00000000 0.0000000e+0 -4.4408921e-16
vn 0.0000000e+0 0.0000000e+0 1.00000000
vn 0.0000000e+0 0.0000000e+0 1.00000000
vn -1.00000000 0.0000000e+0 -4.4408921e-16
vn -1.00000000 0.0000000e+0 -4.4408921e-16
vn 0.0000000e+0 -1.00000000 0.0000000e+0
vn -1.00000000 0.0000000e+0 -2.2204460e-16
vn 0.0000000e+0 -1.00000000 0.0000000e+0
vn -1.00000000 0.0000000e+0 -2.2204460e-16
vn -1.00000000 0.0000000e+0 0.0000000e+0
vn 0.0000000e+0 -1.00000000 1.7622588e-16
vn 0.0000000e+0 -1.00000000 1.7622588e-16
vn 0.0000000e+0 -1.00000000 1.7622588e-16
vn -1.00000000 0.0000000e+0 0.0000000e+0
vn 0.0000000e+0 -1.00000000 0.0000000e+0
vn 0.0000000e+0 -1.00000000 0.0000000e+0
vn -1.00000000 0.0000000e+0 0.0000000e+0
vn -1.00000000 0.0000000e+0 0.0000000e+0
vn 0.0000000e+0 1.00000000 0.0000000e+0
vn 0.0000000e+0 1.00000000 0.0000000e+0
vn 0.0000000e+0 1.00000000 0.0000000e+0
vn 0.0000000e+0 1.00000000 0.0000000e+0
vn 0.0000000e+0 1.00000000 0.0000000e+0
vn 0.0000000e+0 1.00000000 0.0000000e+0
vn 0.0000000e+0 0.0000000e+0 -1.00000000
vn 0.0000000e+0 0.0000000e+0 -1.00000000
vn 0.0000000e+0 0.0000000e+0 -1.00000000
vn 0.0000000e+0 0.0000000e+0 -1.00000000
vn 0.0000000e+0 0.0000000e+0 -1.00000000
vn 0.0000000e+0 0.0000000e+0 -1.00000000
vn -4.4408921e-16 0.0000000e+0 1.00000000
vn -4.4408921e-16 0.0000000e+0 1.00000000
vn -4.4408921e-16 0.0000000e+0 1.00000000
vn -4.4408921e-16 0.0000000e+0 1.00000000
vn -4.4408921e-16 0.0000000e+0 1.00000000
vn -4.4408921e-16 0.0000000e+0 1.00000000
vn 0.0000000e+0 -1.00000000 0.0000000e+0
vn 0.0000000e+0 -1.00000000 0.0000000e+0
vn 0.0000000e+0 -1.00000000 -1.7622588e-16
vn 0.0000000e+0 -1.00000000 -1.7622588e-16
vn 0.0000000e+0 -1.00000000 -1.7622588e-16
vn 0.0000000e+0 -1.00000000 0.0000000e+0
vn 0.0000000e+0 -1.00000000 0.0000000e+0
vn 0.0000000e+0 0.0000000e+0 -1.00000000
vn 0.0000000e+0 1.00000000 0.0000000e+0
vn 0.0000000e+0 1.00000000 0.0000000e+0
vn 0.0000000e+0 0.0000000e+0 -1.00000000
vn 0.0000000e+0 1.00000000 0.0000000e+0
vn 0.0000000e+0 1.00000000 0.0000000e+0
vn 0.0000000e+0 0.0000000e+0 -1.00000000
vn 0.0000000e+0 0.0000000e+0 -1.00000000
vn 0.0000000e+0 1.00000000 0.0000000e+0
vn 0.0000000e+0 1.00000000 0.0000000e+0
vn 2.2204460e-16 0.0000000e+0 -1.00000000
vn 2.2204460e-16 0.0000000e+0 -1.00000000
vn 0.0000000e+0 1.00000000 0.0000000e+0
vn 0.0000000e+0 1.00000000 0.0000000e+0
vn -2.2204460e-16 0.0000000e+0 1.00000000
vn -2.2204460e-16 0.0000000e+0 1.00000000
vn 0.0000000e+0 1.00000000 0.0000000e+0
vn 0.0000000e+0 1.00000000 0.0000000e+0
vn 0.0000000e+0 0.0000000e+0 1.00000000
vn 0.0000000e+0 0.0000000e+0 1.00000000
vn 0.0000000e+0 1.00000000 0.0000000e+0
vn 0.0000000e+0 0.0000000e+0 1.00000000
vn 0.0000000e+0 1.00000000 0.0000000e+0
vn 0.0000000e+0 0.0000000e+0 1.00000000
vn 0.0000000e+0 0.0000000e+0 -1.00000000
vn 0.0000000e+0 -1.00000000 0.0000000e+0
vn 0.0000000e+0 0.0000000e+0 -1.00000000
vn 0.0000000e+0 -1.00000000 0.0000000e+0
vn 0.0000000e+0 0.0000000e+0 -1.00000000
vn 0.0000000e+0 0.0000000e+0 -1.00000000
vn 0.0000000e+0 -1.00000000 0.0000000e+0
vn 0.0000000e+0 -1.00000000 0.0000000e+0
vn 2.2204460e-16 0.0000000e+0 -1.00000000
vn 2.2204460e-16 0.0000000e+0 -1.00000000
vn 0.0000000e+0 -1.00000000 0.0000000e+0
vn 0.0000000e+0 -1.00000000 0.0000000e+0
vn -2.2204460e-16 0.0000000e+0 1.00000000
vn -2.2204460e-16 0.0000000e+0 1.00000000
vn 0.0000000e+0 -1.00000000 0.0000000e+0
vn 0.0000000e+0 0.0000000e+0 1.00000000
vn 0.0000000e+0 0.0000000e+0 1.00000000
vn 0.0000000e+0 -1.00000000 0.0000000e+0
vn 0.0000000e+0 -1.00000000 0.0000000e+0
vn 0.0000000e+0 0.0000000e+0 1.00000000
vn 0.0000000e+0 0.0000000e+0 1.00000000
vn 0.0000000e+0 -1.00000000 0.0000000e+0
vn 0.0000000e+0 1.00000000 0.0000000e+0
vn 0.0000000e+0 1.00000000 0.0000000e+0
vn 0.0000000e+0 1.00000000 0.0000000e+0
vn 0.93358043 0.0000000e+0 0.35836795
vn 0.35836795 0.0000000e+0 -0.93358043
vn 0.0000000e+0 1.00000000 0.0000000e+0
vn 0.0000000e+0 1.00000000 0.0000000e+0
vn 0.0000000e+0 1.00000000 0.0000000e+0
vn -0.93358043 0.0000000e+0 -0.35836795
vn 0.35836795 0.0000000e+0 -0.93358043
vn 0.0000000e+0 1.00000000 0.0000000e+0
vn 0.0000000e+0 1.00000000 0.0000000e+0
vn 0.0000000e+0 1.00000000 0.0000000e+0
vn -0.35836795 0.0000000e+0 0.93358043
vn 0.93358043 0.0000000e+0 0.35836795
vn 0.0000000e+0 1.00000000 0.0000000e+0
vn 0.0000000e+0 1.00000000 0.0000000e+0
vn 0.0000000e+0 1.00000000 0.0000000e+0
vn -0.93358043 0.0000000e+0 -0.35836795
vn -0.35836795 0.0000000e+0 0.93358043
vn -0.93358043 0.0000000e+0 -0.35836795
vn 0.35836795 0.0000000e+0 -0.93358043
vn -0.93358043 0.0000000e+0 -0.35836795
vn 0.35836795 0.0000000e+0 -0.93358043
vn -0.93358043 0.0000000e+0 -0.35836795
vn -0.35836795 0.0000000e+0 0.93358043
vn -0.93358043 0.0000000e+0 -0.35836795
vn -0.35836795 0.0000000e+0 0.93358043
vn -0.35836795 0.0000000e+0 0.93358043
vn 0.93358043 0.0000000e+0 0.35836795
vn -0.35836795 0.0000000e+0 0.93358043
vn 0.93358043 0.0000000e+0 0.35836795
vn 0.93358043 0.0000000e+0 0.35836795
vn 0.35836795 0.0000000e+0 -0.93358043
vn 0.93358043 0.0000000e+0 0.35836795
vn 0.35836795 0.0000000e+0 -0.93358043
vn 0.0000000e+0 1.00000000 0.0000000e+0
vn -0.93358043 0.0000000e+0 -0.35836795
vn 0.35836795 0.0000000e+0 -0.93358043
vn 0.0000000e+0 1.00000000 0.0000000e+0
vn -0.93358043 0.0000000e+0 -0.35836795
vn -0.35836795 0.0000000e+0 0.93358043
vn 0.0000000e+0 1.00000000 0.0000000e+0
vn -0.35836795 0.0000000e+0 0.93358043
vn 0.93358043 0.0000000e+0 0.35836795
vn 0.0000000e+0 1.00000000 0.0000000e+0
vn 0.93358043 0.0000000e+0 0.35836795
vn 0.35836795 0.0000000e+0 -0.93358043
g Cube1_emissivewhite
usemtl emissivewhite
s 3
f 10//2 11//3 12//4 9//1
g Cube1_grn
usemtl grn
s 2
f 1//38 39//146 75//27 18//82
f 5//51 30//121 73//25 37//135
f 16//73 69//21 45//168 3//44
f 17//77 72//24 69//21 16//74
f 18//81 75//27 72//24 17//78
f 28//117 67//19 70//22 29//118
f 29//119 70//22 73//25 30//120
f 37//138 73//25 74//26 38//141
f 38//142 74//26 75//27 39//145
f 43//159 67//19 28//116 7//55
f 44//163 68//20 67//19 43//161
f 45//167 69//21 68//20 44//164
f 68//20 71//23 70//22 67//19
f 69//21 72//24 71//23 68//20
f 71//23 74//26 73//25 70//22
f 72//24 75//27 74//26 71//23
g Cube1_red
usemtl red
s 2
f 4//47 48//178 58//10 19//85
f 8//60 31//122 60//12 46//172
f 19//86 58//10 61//13 20//89
f 20//90 61//13 64//16 21//93
f 21//94 64//16 42//156 2//41
f 32//124 63//15 60//12 31//123
f 33//126 66//18 63//15 32//125
f 40//150 66//18 33//127 6//54
f 41//154 65//17 66//18 40//149
f 42//158 64//16 65//17 41//153
f 46//171 60//12 59//11 47//175
f 47//174 59//11 58//10 48//179
f 59//11 62//14 61//13 58//10
f 60//12 63//15 62//14 59//11
f 62//14 65//17 64//16 61//13
f 63//15 66//18 65//17 62//14
g Cube1_white
usemtl white
s 1
f 1//39 18//84 84//36 15//72
f 3//45 24//109 82//34 16//76
f 13//63 76//28 21//95 2//42
f 14//67 81//33 76//28 13//64
f 15//71 84//36 81//33 14//68
f 16//75 82//34 83//35 17//79
f 17//80 83//35 84//36 18//83
f 19//88 78//30 22//100 4//49
f 20//92 77//29 78//30 19//87
f 21//96 76//28 77//29 20//91
f 22//98 78//30 79//31 23//101
f 23//105 79//31 82//34 24//108
f 76//28 81//33 80//32 77//29
f 77//29 80//32 79//31 78//30
f 80//32 83//35 82//34 79//31
f 81//33 84//36 83//35 80//32
f 90//220 91//223 92//226 89//217
s 2
f 53//184 88//213 87//210 56//195
f 57//199 86//205 85//201 54//189
f 86//207 90//221 89//218 85//203
f 88//215 92//227 91//225 87//212
s 3
f 3//46 45//169 44//165 10//2
f 7//56 11//3 44//162 43//160
f 7//57 36//133 11//3
f 8//58 12//4 34//128
f 9//1 23//104 10//2
f 9//1 47//176 48//180 4//50
f 10//2 24//107 3//43
f 10//2 44//166 11//3
f 11//3 35//131 12//4
f 12//4 47//177 9//1
f 22//97 9//1 4//48
f 23//103 9//1 22//99
f 24//106 10//2 23//102
f 34//129 12//4 35//130
f 35//132 11//3 36//134
f 46//170 47//173 12//4 8//59
f 54//190 85//202 88//214 53//185
f 56//194 87//209 86//206 57//200
f 85//204 89//219 92//228 88//216
f 87//211 91//224 90//222 86//208
s 4
f 2//40 42//155 49//5 13//61
f 6//53 25//110 51//7 40//148
f 13//62 49//5 52//8 14//65
f 14//66 52//8 55//9 15//69
f 15//70 55//9 39//143 1//37
f 26//112 54//187 51//7 25//111
f 27//114 57//196 54//188 26//113
f 37//137 57//198 27//115 5//52
f 38//140 56//193 57//197 37//136
f 39//144 55//9 56//192 38//139
f 40//147 51//7 50//6 41//152
f 41//151 50//6 49//5 42//157
f 50//6 53//181 52//8 49//5
f 51//7 54//186 53//182 50//6
f 53//183 56//191 55//9 52//8
