# Exported from Wings 3D 1.5.2
mtllib corner.mtl
o Cube3
#12 vertices, 6 faces
v -1.00000000 0.0000000e+0 -1.00000000
v -1.00000000 0.0000000e+0 1.00000000
v 1.00000000 0.0000000e+0 -1.00000000
v 1.00000000 0.0000000e+0 0.0000000e+0
v -1.00000000 0.0000000e+0 0.0000000e+0
v 0.0000000e+0 0.0000000e+0 0.0000000e+0
v 0.0000000e+0 0.0000000e+0 1.00000000
v 0.0000000e+0 0.0000000e+0 -1.00000000
v 1.00000000 1.00000000 1.00000000
v 1.00000000 1.00000000 0.0000000e+0
v 0.0000000e+0 1.00000000 0.0000000e+0
v 0.0000000e+0 1.00000000 1.00000000
vn 0.0000000e+0 1.00000000 0.0000000e+0
vn 0.0000000e+0 1.00000000 0.0000000e+0
vn 0.0000000e+0 1.00000000 0.0000000e+0
vn 0.0000000e+0 1.00000000 0.0000000e+0
vn 0.0000000e+0 0.0000000e+0 -1.00000000
vn 0.0000000e+0 1.00000000 0.0000000e+0
vn 0.0000000e+0 1.00000000 0.0000000e+0
vn 0.0000000e+0 1.00000000 0.0000000e+0
vn 0.0000000e+0 1.00000000 0.0000000e+0
vn 0.0000000e+0 1.00000000 0.0000000e+0
vn 0.0000000e+0 0.0000000e+0 -1.00000000
vn -1.00000000 0.0000000e+0 0.0000000e+0
vn 0.0000000e+0 1.00000000 0.0000000e+0
vn -1.00000000 0.0000000e+0 0.0000000e+0
vn 0.0000000e+0 1.00000000 0.0000000e+0
vn 0.0000000e+0 1.00000000 0.0000000e+0
vn 0.0000000e+0 1.00000000 0.0000000e+0
vn 0.0000000e+0 1.00000000 0.0000000e+0
vn 0.0000000e+0 0.0000000e+0 -1.00000000
vn 0.0000000e+0 1.00000000 0.0000000e+0
vn 0.0000000e+0 0.0000000e+0 -1.00000000
vn -1.00000000 0.0000000e+0 0.0000000e+0
vn 0.0000000e+0 1.00000000 0.0000000e+0
vn -1.00000000 0.0000000e+0 0.0000000e+0
g Cube3_default
usemtl default
s 2
f 7//14 12//24 11//22 6//12
s 3
f 6//11 11//21 10//19 4//5
s 4
f 3//3 8//15 6//9 4//4
f 5//7 6//10 8//16 1//1
f 7//13 6//8 5//6 2//2
f 10//18 11//20 12//23 9//17
